<?xml version="1.0" encoding="UTF-8" standalone="no"?> <svg height="517pt" viewBox="-16 -85 517.33331 517" width="517pt" xmlns="http://www.w3.org/2000/svg"><path d="m11.25 343.082031c6.210938 0 11.25-5.039062 11.25-11.25v-51.25h440v51.25c0 6.210938 5.039062 11.25 11.25 11.25s11.25-5.039062 11.25-11.25v-237.5c0-6.210937-5.039062-11.25-11.25-11.25s-11.25 5.039063-11.25 11.25v51.25h-440v-138.75c0-6.210937-5.039062-11.25-11.25-11.25s-11.25 5.039063-11.25 11.25v325c0 6.210938 5.039062 11.25 11.25 11.25zm11.25-85v-15h440v15zm440-90v52.5h-440v-52.5zm0 0"/><path d="m43.390625 134.496094h116.242187c6.210938 0 11.25-5.039063 11.25-11.25-.039062-32.519532-26.390624-58.875-58.910156-58.914063h-68.582031c-6.210937 0-11.25 5.039063-11.25 11.25v47.664063c0 6.210937 5.039063 11.25 11.25 11.25zm11.25-47.664063h57.332031c15.769532.019531 29.742188 10.171875 34.632813 25.164063h-91.964844zm0 0"/></svg>