<?xml version="1.0" encoding="UTF-8" standalone="no"?> <svg height="624pt" viewBox="-69 -19 624 624" width="624pt" xmlns="http://www.w3.org/2000/svg"><path d="m7.917969 585c6.210937 0 11.25-5.039062 11.25-11.25v-51.25h440v51.25c0 6.210938 5.039062 11.25 11.25 11.25 6.210937 0 11.25-5.039062 11.25-11.25v-500c0-6.210938-5.039063-11.25-11.25-11.25-6.210938 0-11.25 5.039062-11.25 11.25v88.859375c-10.917969-8.972656-24.621094-13.875-38.75-13.859375h-401.25v-137.5c0-6.210938-5.039063-11.25-11.25-11.25-6.210938 0-11.25 5.039062-11.25 11.25v562.5c0 6.210938 5.039062 11.25 11.25 11.25zm451.25-122.5h-440v-52.5h440zm-440 37.5v-15h440v15zm440-112.5h-440v-166.25h440zm-38.75-216.25c17.058593.019531 32.109375 11.179688 37.082031 27.5h-438.332031v-27.5zm0 0"/><path d="m40.054688 376.410156h116.246093c6.210938 0 11.25-5.039062 11.25-11.25-.039062-32.519531-26.390625-58.871094-58.910156-58.910156h-68.585937c-6.210938 0-11.25 5.039062-11.25 11.25v47.660156c0 6.210938 5.039062 11.25 11.25 11.25zm11.25-47.660156h57.335937c15.769531.019531 29.738281 10.171875 34.632813 25.160156h-91.96875zm0 0"/><path d="m40.054688 137.660156h116.246093c6.210938 0 11.25-5.039062 11.25-11.25-.039062-32.519531-26.390625-58.871094-58.910156-58.910156h-68.585937c-6.210938 0-11.25 5.039062-11.25 11.25v47.660156c0 6.210938 5.039062 11.25 11.25 11.25zm11.25-47.660156h57.335937c15.769531.019531 29.738281 10.171875 34.632813 25.160156h-91.96875zm0 0"/></svg>