<?xml version="1.0" encoding="UTF-8" standalone="no"?> <svg width="64" height="64" viewBox="0 0 64 64" fill="none" xmlns="http://www.w3.org/2000/svg">
<path d="M27 3.00005C26.4245 3.00005 25.8725 3.22868 25.4656 3.63563C25.0586 4.04258 24.83 4.59453 24.83 5.17005V17.2701C24.8278 18.0277 24.5526 18.7591 24.0549 19.3304C23.5571 19.9016 22.8702 20.2742 22.12 20.3801V5.17005C22.1176 4.60386 21.895 4.0608 21.4994 3.6558C21.1037 3.2508 20.566 3.01563 20 3.00005H19.19C18.9034 2.99741 18.619 3.05159 18.3534 3.15946C18.0878 3.26733 17.8463 3.42675 17.6426 3.62851C17.439 3.83028 17.2774 4.07039 17.1671 4.33498C17.0568 4.59957 17 4.88339 17 5.17005V20.3501C16.3066 20.216 15.6828 19.8416 15.2383 19.2929C14.7938 18.7441 14.5572 18.0561 14.57 17.3501V5.17005C14.5687 4.88377 14.511 4.60055 14.4002 4.33656C14.2895 4.07257 14.1278 3.83298 13.9244 3.63148C13.7211 3.42998 13.48 3.2705 13.215 3.16216C12.95 3.05382 12.6663 2.99873 12.38 3.00005H12.1C11.5534 3.00069 11.027 3.20662 10.6251 3.57705C10.2232 3.94747 9.97513 4.45535 9.93 5.00005L9 20.6801C9.00388 22.5073 9.70239 24.2648 10.9539 25.5962C12.2055 26.9276 13.9164 27.7333 15.74 27.8501L14.88 56.17C14.8624 57.1043 15.1244 58.0226 15.6322 58.807C16.14 59.5914 16.8705 60.2062 17.7302 60.5726C18.5898 60.939 19.5392 61.0403 20.4568 60.8635C21.3743 60.6866 22.2182 60.2397 22.88 59.5801C23.318 59.1292 23.6614 58.5952 23.8898 58.0095C24.1182 57.4239 24.2271 56.7984 24.21 56.17L23.4 27.8501C25.2322 27.728 26.9491 26.9124 28.2012 25.5692C29.4533 24.2261 30.1466 22.4563 30.14 20.6201L29.2 5.00005C29.1545 4.45015 28.9021 3.93797 28.4939 3.56681C28.0856 3.19564 27.5517 2.99311 27 3.00005ZM21.5 58.18C20.9868 58.6893 20.293 58.9751 19.57 58.9751C18.847 58.9751 18.1532 58.6893 17.64 58.18C17.3823 57.9171 17.1817 57.6037 17.0509 57.2595C16.9201 56.9153 16.8619 56.5478 16.88 56.18L17.74 27.8201H21.4L22.26 56.18C22.2781 56.5478 22.2199 56.9153 22.0891 57.2595C21.9583 57.6037 21.7577 57.9171 21.5 58.18ZM23 25.8701H16.19C14.8239 25.8701 13.5128 25.3316 12.5412 24.3712C11.5696 23.4108 11.0158 22.1061 11 20.7401L11.93 5.16005C11.9326 5.11672 11.9516 5.07601 11.9832 5.04626C12.0148 5.01651 12.0566 4.99998 12.1 5.00005H12.38C12.4261 4.99998 12.4704 5.01757 12.5039 5.04919C12.5374 5.08081 12.5574 5.12407 12.56 5.17005V17.4001C12.56 18.7261 13.0868 19.9979 14.0245 20.9356C14.9621 21.8733 16.2339 22.4001 17.56 22.4001C17.9358 22.4028 18.2976 22.2574 18.5671 21.9954C18.8366 21.7334 18.9921 21.3758 19 21.0001V5.17005C19.0021 5.12732 19.0194 5.08675 19.0487 5.0556C19.078 5.02444 19.1175 5.00475 19.16 5.00005H20C20.0461 4.99998 20.0904 5.01757 20.1239 5.04919C20.1574 5.08081 20.1774 5.12407 20.18 5.17005V20.8501C20.18 21.2638 20.3444 21.6606 20.6369 21.9531C20.9295 22.2457 21.3263 22.4101 21.74 22.4101C23.1041 22.4101 24.4125 21.8688 25.3781 20.9052C26.3436 19.9415 26.8874 18.6342 26.89 17.2701V5.17005C26.89 4.99005 27.22 4.98005 27.24 5.17005L28.17 20.6901C28.1648 22.0605 27.6187 23.3735 26.6505 24.3435C25.6824 25.3136 24.3705 25.8622 23 25.8701Z" fill="black"/>
<path d="M54.6801 24.62L50.7601 8.70001C50.3611 7.07145 49.4265 5.62417 48.1063 4.59049C46.7861 3.55681 45.1568 2.99668 43.4801 3.00001C43.2149 3.00001 42.9605 3.10537 42.773 3.29291C42.5855 3.48044 42.4801 3.7348 42.4801 4.00001V56.83C42.4524 57.3941 42.5397 57.958 42.7365 58.4874C42.9333 59.0168 43.2357 59.5007 43.6251 59.9097C44.0146 60.3187 44.4831 60.6444 45.0023 60.8669C45.5214 61.0894 46.0803 61.2042 46.6451 61.2042C47.2099 61.2042 47.7688 61.0894 48.2879 60.8669C48.8071 60.6444 49.2756 60.3187 49.665 59.9097C50.0545 59.5007 50.3568 59.0168 50.5537 58.4874C50.7505 57.958 50.8377 57.3941 50.8101 56.83V36.05C52.48 34.7138 53.732 32.9271 54.4179 30.9014C55.1037 28.8757 55.1947 26.6958 54.6801 24.62V24.62ZM49.2401 34.74C49.0975 34.8384 48.9828 34.9722 48.9075 35.1282C48.8321 35.2842 48.7985 35.4571 48.8101 35.63V56.83C48.8303 57.1267 48.7893 57.4244 48.6896 57.7045C48.5899 57.9847 48.4337 58.2414 48.2307 58.4587C48.0277 58.676 47.7822 58.8492 47.5094 58.9677C47.2367 59.0861 46.9425 59.1472 46.6451 59.1472C46.3477 59.1472 46.0535 59.0861 45.7808 58.9677C45.508 58.8492 45.2625 58.676 45.0595 58.4587C44.8565 58.2414 44.7003 57.9847 44.6006 57.7045C44.5009 57.4244 44.4599 57.1267 44.4801 56.83V5.09001C45.5199 5.28048 46.4822 5.76813 47.2506 6.49398C48.019 7.21983 48.5607 8.15279 48.8101 9.18002L52.7301 25.1C53.1719 26.8718 53.0759 28.735 52.4543 30.4519C51.8327 32.1689 50.7137 33.6617 49.2401 34.74V34.74Z" fill="black"/>
</svg>
