<?xml version="1.0" encoding="UTF-8" standalone="no"?> <svg id="Layer_1" data-name="Layer 1" xmlns="http://www.w3.org/2000/svg" viewBox="0 0 64 64"><title>direction</title><path d="M36,57H28a1,1,0,0,1-1-1V34a1,1,0,0,1,1-1h8a1,1,0,0,1,1,1V56A1,1,0,0,1,36,57Zm-7-2h6V35H29Z"/><path d="M36,13H28a1,1,0,0,1-1-1V4a1,1,0,0,1,1-1h8a1,1,0,0,1,1,1v8A1,1,0,0,1,36,13Zm-7-2h6V5H29Z"/><path d="M40,35H16a1,1,0,0,1-.66-.25l-8-7a1,1,0,0,1,0-1.5l8-7A1,1,0,0,1,16,19H40a1,1,0,0,1,1,1V34A1,1,0,0,1,40,35ZM16.38,33H39V21H16.38L9.52,27Z"/><path d="M48,27H40a1,1,0,0,1-1-1V21H24a1,1,0,0,1-1-1V12a1,1,0,0,1,1-1H48a1,1,0,0,1,.66.25l8,7a1,1,0,0,1,0,1.5l-8,7A1,1,0,0,1,48,27Zm-7-2h6.62l6.86-6-6.86-6H25v6H40a1,1,0,0,1,1,1Z"/><path d="M40,61H24a1,1,0,0,1-1-1V56a1,1,0,0,1,1-1H40a1,1,0,0,1,1,1v4A1,1,0,0,1,40,61ZM25,59H39V57H25Z"/></svg>